<svg width="32" height="32" viewBox="0 0 32 32" fill="none" xmlns="http://www.w3.org/2000/svg">
<path d="M23.5041 18.4053C25.1041 18.4053 26.4001 19.7013 26.4001 21.3013V22.4037H26.3921C26.3377 23.6517 25.9953 25.2149 24.5953 26.4917C23.0657 27.8885 20.4241 28.8005 16.0001 28.8005C11.5745 28.8005 8.9345 27.8885 7.4049 26.4917C6.0049 25.2149 5.6625 23.6501 5.6081 22.4037H5.6001V21.2997C5.6001 19.7013 6.8961 18.4053 8.4961 18.4053H23.5041Z" fill="white"/>
<path d="M10.4 4.8004C9.76348 4.8004 9.15303 5.05326 8.70294 5.50335C8.25286 5.95343 8 6.56388 8 7.2004V13.6004C8 14.2369 8.25286 14.8474 8.70294 15.2975C9.15303 15.7475 9.76348 16.0004 10.4 16.0004H21.6C22.2365 16.0004 22.847 15.7475 23.2971 15.2975C23.7471 14.8474 24 14.2369 24 13.6004V7.2004C24 6.56388 23.7471 5.95343 23.2971 5.50335C22.847 5.05326 22.2365 4.8004 21.6 4.8004H16.8V4.0004C16.8045 3.89414 16.7869 3.78809 16.7483 3.68898C16.7097 3.58987 16.651 3.49986 16.5758 3.42465C16.5005 3.34944 16.4105 3.29067 16.3114 3.25207C16.2123 3.21347 16.1063 3.19588 16 3.2004C15.5584 3.2004 15.2 3.5684 15.2 4.0004V4.8004H10.4ZM11.2 10.4004C11.2 9.97606 11.3686 9.56909 11.6686 9.26903C11.9687 8.96897 12.3757 8.8004 12.8 8.8004C13.2243 8.8004 13.6313 8.96897 13.9314 9.26903C14.2314 9.56909 14.4 9.97606 14.4 10.4004C14.4 10.8247 14.2314 11.2317 13.9314 11.5318C13.6313 11.8318 13.2243 12.0004 12.8 12.0004C12.3757 12.0004 11.9687 11.8318 11.6686 11.5318C11.3686 11.2317 11.2 10.8247 11.2 10.4004ZM17.6 10.4004C17.6 9.97606 17.7686 9.56909 18.0686 9.26903C18.3687 8.96897 18.7757 8.8004 19.2 8.8004C19.6243 8.8004 20.0313 8.96897 20.3314 9.26903C20.6314 9.56909 20.8 9.97606 20.8 10.4004C20.8 10.8247 20.6314 11.2317 20.3314 11.5318C20.0313 11.8318 19.6243 12.0004 19.2 12.0004C18.7757 12.0004 18.3687 11.8318 18.0686 11.5318C17.7686 11.2317 17.6 10.8247 17.6 10.4004Z" fill="white"/>
</svg>
