<svg width="150" height="30" viewBox="0 0 150 30" fill="none" xmlns="http://www.w3.org/2000/svg">
<g clip-path="url(#clip0_1713_2352)">
<path d="M9.70192 3.23828H3L5.46326 6.81362L9.27537 6.04202L7.14259 7.83733H16.0234L13.9098 18.8995L22.441 7.83733H36.6403L39.8721 3.23828H9.70192Z" fill="#F1B000"/>
<path d="M23.9967 9.26611L14.916 20.5346L21.4373 30L32.0551 16.4206L27.4283 17.5322L22.1636 22.9219L20.7264 21.0617L26.5906 13.3686H29.3805L28.3852 14.7972H32.3164L30.1183 12.8988L33.2425 14.0714L36.6204 9.26611H23.9967Z" fill="#F1B000"/>
<path d="M12.4534 1H5.45174L3 3.23841H9.70192L12.4534 1Z" fill="#F1B000"/>
<path d="M7.15039 9.26611H14.252L12.7033 17.5895L7.15039 9.26611Z" fill="white"/>
<path d="M53.4958 8.6626V11.2906H49.7106V22.5973H46.9476V11.2906H43.1816V8.6626H53.4958Z" fill="#FCFCFC"/>
<path d="M56.235 14.3696C56.4497 13.7674 56.8716 13.26 57.4263 12.9372C57.9901 12.6175 58.6294 12.4527 59.2785 12.4597V15.3284C58.547 15.2221 57.8017 15.3866 57.1842 15.7906C56.5616 16.2006 56.2504 16.883 56.2504 17.838V22.5975H53.668V12.643H56.2504L56.235 14.3696Z" fill="#FCFCFC"/>
<path d="M67.3903 12.6426H69.9727V22.597H67.3903V21.4816C66.7601 22.4098 65.7686 22.8759 64.4044 22.8759C63.9004 22.8906 63.3988 22.8007 62.9316 22.6119C62.4645 22.4232 62.0421 22.1397 61.6914 21.7796C60.9766 21.05 60.623 20.0416 60.623 18.7543V12.6426H63.2054V18.4372C63.1859 18.7149 63.2236 18.9936 63.3161 19.2563C63.4086 19.519 63.554 19.7602 63.7434 19.9652C63.9375 20.1426 64.1653 20.2797 64.4134 20.3682C64.6616 20.4568 64.9251 20.4951 65.1884 20.4808C65.4836 20.4958 65.7787 20.4491 66.0547 20.3439C66.3307 20.2386 66.5814 20.0771 66.7908 19.8697C67.23 19.3555 67.4469 18.6895 67.3941 18.0171L67.3903 12.6426Z" fill="#FCFCFC"/>
<path d="M74.8843 19.2852C75.5478 20.398 76.62 20.7533 78.1007 20.3509C78.5182 20.2673 78.9091 20.0847 79.2403 19.8187C79.5715 19.5527 79.8331 19.2111 80.003 18.823L82.3279 19.4303C81.7514 21.0576 80.5358 22.1233 78.681 22.6275C77.987 22.8508 77.2546 22.9321 76.5281 22.8664C75.8016 22.8008 75.0961 22.5895 74.4539 22.2455C73.8457 21.8999 73.3152 21.4342 72.8948 20.8772C72.4745 20.3201 72.1734 19.6834 72.0098 19.0063C71.8066 18.3438 71.7402 17.6473 71.8149 16.9587C71.8895 16.2701 72.1035 15.6036 72.4441 14.9993C72.7904 14.3892 73.2601 13.857 73.8236 13.4363C74.3871 13.0155 75.0322 12.7153 75.7182 12.5547C76.3681 12.3587 77.0526 12.303 77.726 12.3913C78.3993 12.4796 79.0459 12.7098 79.6225 13.0665C80.8034 13.7872 81.6511 14.9414 81.982 16.279C82.0725 16.6168 82.1329 16.962 82.1626 17.3103L74.8843 19.2852ZM74.3194 17.3753L79.2459 16.0383C78.9896 15.486 78.5324 15.0506 77.9663 14.8198C77.4392 14.6184 76.8606 14.593 76.3177 14.7472C75.7095 14.8836 75.1668 15.2234 74.7805 15.7098C74.4331 16.1931 74.2697 16.7833 74.3194 17.3753Z" fill="#FCFCFC"/>
<path d="M90.7357 22.876C89.7666 22.9053 88.8019 22.7348 87.9025 22.3752C87.003 22.0156 86.1882 21.4747 85.5094 20.7866C84.8337 20.1096 84.3025 19.3038 83.9479 18.4176C83.5933 17.5315 83.4225 16.5833 83.4458 15.6298C83.4208 14.6751 83.5908 13.7252 83.9455 12.8376C84.3001 11.9499 84.8322 11.143 85.5094 10.4655C86.1892 9.77932 87.0044 9.24022 87.9038 8.88198C88.8031 8.52374 89.7672 8.35409 90.7357 8.38367C91.9635 8.3746 93.1731 8.67979 94.248 9.26986C95.2902 9.82801 96.1602 10.6572 96.7651 11.6687L94.3825 13.0438C94.0415 12.4247 93.5277 11.9166 92.903 11.5809C92.0265 11.1332 91.0327 10.9645 90.0564 11.0978C89.0801 11.231 88.1688 11.6598 87.4462 12.3257C87.0255 12.7651 86.6978 13.2839 86.4826 13.8515C86.2674 14.419 86.1691 15.0238 86.1934 15.6298C86.1706 16.2329 86.2697 16.8343 86.4849 17.3986C86.7 17.9628 87.0269 18.4784 87.4462 18.9149C87.8769 19.3416 88.3919 19.675 88.9587 19.8939C89.5256 20.1128 90.1319 20.2126 90.7395 20.1869C91.5004 20.1994 92.2519 20.0179 92.9222 19.6597C93.5453 19.3331 94.0573 18.8308 94.394 18.2159L96.7766 19.591C96.1745 20.6096 95.3042 21.4455 94.2595 22.0089C93.1794 22.5943 91.9657 22.8929 90.7357 22.876Z" fill="#FCFCFC"/>
<path d="M101.088 14.3696C101.3 13.7659 101.723 13.2577 102.28 12.9372C102.843 12.617 103.483 12.4522 104.132 12.4597V15.3284C103.392 15.2229 102.639 15.393 102.018 15.8059C101.398 16.2159 101.088 16.8983 101.088 17.8533V22.5975H98.5059V12.6431H101.088V14.3696Z" fill="#FCFCFC"/>
<path d="M112.38 12.6426H115.143L111.5 22.597C110.987 24.0307 110.297 25.0684 109.428 25.7101C108.499 26.3794 107.359 26.6927 106.216 26.5925V24.186C106.799 24.2313 107.381 24.0777 107.864 23.7506C108.327 23.3647 108.665 22.8519 108.837 22.2761L104.732 12.6426H107.557L110.159 19.3349L112.38 12.6426Z" fill="#FCFCFC"/>
<path d="M122.193 12.3643C122.846 12.3576 123.493 12.4906 124.089 12.7542C124.686 13.0178 125.219 13.406 125.651 13.8923C126.605 14.9 127.12 16.2411 127.085 17.6242C127.12 19.0073 126.605 20.3484 125.651 21.3562C125.219 21.8425 124.686 22.2306 124.089 22.4942C123.493 22.7578 122.846 22.8908 122.193 22.8841C121.574 22.9168 120.956 22.8018 120.391 22.5486C119.826 22.2954 119.331 21.9114 118.946 21.4287V26.5931H116.363V12.6432H118.946V13.8197C119.331 13.337 119.826 12.9531 120.391 12.6999C120.956 12.4467 121.574 12.3316 122.193 12.3643ZM119.73 19.622C119.988 19.8818 120.297 20.0859 120.638 20.2213C120.98 20.3567 121.345 20.4205 121.713 20.4089C122.081 20.4202 122.448 20.3562 122.79 20.2209C123.132 20.0855 123.443 19.8817 123.703 19.622C123.966 19.3565 124.173 19.0403 124.309 18.6928C124.445 18.3454 124.508 17.9739 124.495 17.6013C124.508 17.2287 124.445 16.8572 124.309 16.5098C124.173 16.1623 123.966 15.8461 123.703 15.5806C123.443 15.3209 123.132 15.1171 122.79 14.9817C122.448 14.8464 122.081 14.7824 121.713 14.7937C121.345 14.7821 120.98 14.8459 120.638 14.9813C120.297 15.1167 119.988 15.3208 119.73 15.5806C119.471 15.8484 119.269 16.1655 119.137 16.5128C119.005 16.8601 118.945 17.2304 118.961 17.6013C118.943 17.9754 119.001 18.3493 119.134 18.7C119.266 19.0508 119.469 19.371 119.73 19.6411V19.622Z" fill="#FCFCFC"/>
<path d="M134.425 15.1104H132.161V19.2511C132.148 19.3896 132.164 19.5294 132.209 19.6611C132.254 19.7929 132.327 19.9135 132.423 20.015C132.639 20.1917 132.911 20.2876 133.191 20.2863C133.605 20.3086 134.019 20.3086 134.432 20.2863V22.6163C132.657 22.815 131.405 22.6482 130.678 22.1159C129.952 21.5888 129.587 20.6377 129.587 19.2702V15.1104H127.846V12.6428H129.587V10.6336L132.169 9.86963V12.6543H134.425V15.1104Z" fill="#FCFCFC"/>
<path d="M144.46 21.3518C143.72 22.0933 142.774 22.599 141.743 22.8045C140.713 23.01 139.644 22.9061 138.673 22.5058C137.702 22.1056 136.873 21.4273 136.291 20.5572C135.71 19.6871 135.401 18.6645 135.406 17.6198C135.387 16.9164 135.51 16.2163 135.768 15.5609C136.025 14.9055 136.413 14.308 136.906 13.8038C137.4 13.2995 137.991 12.8988 138.643 12.6251C139.295 12.3514 139.996 12.2104 140.704 12.2104C141.412 12.2104 142.112 12.3514 142.764 12.6251C143.417 12.8988 144.007 13.2995 144.501 13.8038C144.995 14.308 145.382 14.9055 145.639 15.5609C145.897 16.2163 146.02 16.9164 146.001 17.6198C146.015 18.3136 145.885 19.0029 145.62 19.6449C145.355 20.2868 144.96 20.8678 144.46 21.3518ZM138.761 19.5908C139.282 20.0885 139.976 20.3665 140.698 20.3665C141.42 20.3665 142.114 20.0885 142.635 19.5908C142.891 19.3315 143.091 19.0229 143.223 18.684C143.355 18.3451 143.417 17.983 143.403 17.6198C143.417 17.2566 143.355 16.8945 143.223 16.5556C143.091 16.2167 142.891 15.9081 142.635 15.6488C142.114 15.1511 141.42 14.8731 140.698 14.8731C139.976 14.8731 139.282 15.1511 138.761 15.6488C138.505 15.9081 138.305 16.2167 138.172 16.5556C138.04 16.8945 137.979 17.2566 137.992 17.6198C137.979 17.983 138.04 18.3451 138.172 18.684C138.305 19.0229 138.505 19.3315 138.761 19.5908Z" fill="#FCFCFC"/>
</g>
<defs>
<clipPath id="clip0_1713_2352">
<rect width="150" height="30" fill="white"/>
</clipPath>
</defs>
</svg>
