<svg width="10" height="18" viewBox="0 0 10 18" fill="none" xmlns="http://www.w3.org/2000/svg">
<path d="M1.71291 17.7496C1.89965 17.7502 2.08416 17.709 2.25289 17.629C2.42161 17.549 2.57026 17.4321 2.68791 17.2871L8.72541 9.78711C8.90926 9.56345 9.00977 9.2829 9.00977 8.99336C9.00977 8.70383 8.90926 8.42328 8.72541 8.19961L2.47541 0.699612C2.26323 0.444342 1.95834 0.283811 1.62781 0.253336C1.29728 0.222862 0.968177 0.324939 0.712906 0.537112C0.457635 0.749285 0.297105 1.05417 0.26663 1.38471C0.236156 1.71524 0.338232 2.04434 0.550406 2.29961L6.13791 8.99961L0.737906 15.6996C0.585052 15.8831 0.487956 16.1065 0.458107 16.3435C0.428257 16.5804 0.466904 16.8209 0.569473 17.0366C0.672043 17.2522 0.834243 17.434 1.03688 17.5604C1.23952 17.6867 1.47411 17.7524 1.71291 17.7496Z" fill="white"/>
</svg>
