<svg width="10" height="18" viewBox="0 0 10 18" fill="none" xmlns="http://www.w3.org/2000/svg">
<path d="M8.28709 17.7496C8.10035 17.7502 7.91584 17.709 7.74711 17.629C7.57839 17.549 7.42974 17.4321 7.31209 17.2871L1.27459 9.78711C1.09074 9.56345 0.990234 9.2829 0.990234 8.99336C0.990234 8.70383 1.09074 8.42328 1.27459 8.19961L7.52459 0.699612C7.73677 0.444342 8.04166 0.283811 8.37219 0.253336C8.70272 0.222862 9.03182 0.324939 9.28709 0.537112C9.54237 0.749285 9.7029 1.05417 9.73337 1.38471C9.76384 1.71524 9.66177 2.04434 9.44959 2.29961L3.86209 8.99961L9.26209 15.6996C9.41495 15.8831 9.51204 16.1065 9.54189 16.3435C9.57174 16.5804 9.5331 16.8209 9.43053 17.0366C9.32796 17.2522 9.16576 17.434 8.96312 17.5604C8.76048 17.6867 8.52589 17.7524 8.28709 17.7496Z" fill="white"/>
</svg>
