<svg width="100" height="100" viewBox="0 0 100 100" fill="none" xmlns="http://www.w3.org/2000/svg">
<path d="M53.9299 79.275C21.9819 79.275 3.75928 57.4 3 21H19.0032C19.5288 47.7167 31.3268 59.0333 40.6717 61.3667V21H55.7404V44.0417C64.9686 43.05 74.6639 32.55 77.9346 21H93.0033C91.7708 26.9902 89.314 32.6619 85.7866 37.6604C82.2592 42.6589 77.737 46.8767 72.5029 50.05C78.3454 52.9495 83.5058 57.0535 87.6436 62.0911C91.7814 67.1288 94.8026 72.9856 96.5077 79.275H79.9204C78.3898 73.8122 75.2789 68.9221 70.9775 65.2175C66.6761 61.513 61.3757 59.1588 55.7404 58.45V79.275H53.9299Z" fill="white"/>
</svg>
