<svg width="100" height="67" viewBox="0 0 100 67" fill="none" xmlns="http://www.w3.org/2000/svg">
<path d="M97.9192 10.4665C97.353 8.44662 96.25 6.61793 94.7276 5.17483C93.1621 3.68734 91.2434 2.62331 89.1526 2.08316C81.3276 0.0206616 49.9776 0.020662 49.9776 0.020662C36.9081 -0.128035 23.8419 0.525972 10.8526 1.97899C8.7617 2.55905 6.84658 3.64686 5.27757 5.14566C3.7359 6.62899 2.61924 8.45816 2.0359 10.4623C0.634626 18.0113 -0.0462117 25.6763 0.0025716 33.354C-0.0474284 41.0248 0.631738 48.6873 2.0359 56.2457C2.60674 58.2415 3.71924 60.0623 5.26507 61.5332C6.8109 63.004 8.73591 64.0665 10.8526 64.629C18.7817 66.6873 49.9776 66.6873 49.9776 66.6873C63.0637 66.8362 76.1466 66.1822 89.1526 64.729C91.2434 64.1889 93.1621 63.1248 94.7276 61.6373C96.2692 60.1665 97.3651 58.3373 97.9151 56.3457C99.3529 48.7996 100.052 41.1315 100.003 33.4498C100.111 25.7357 99.4125 18.0313 97.9192 10.4623V10.4665ZM40.0109 47.6207V19.0915L66.0942 33.3582L40.0109 47.6207Z" fill="white"/>
</svg>
